<?xml version="1.0" encoding="UTF-8"?>
<!DOCTYPE svg PUBLIC "-//W3C//DTD SVG 1.1//EN" "http://www.w3.org/Graphics/SVG/1.1/DTD/svg11.dtd">
<!-- Creator: CorelDRAW -->
<svg xmlns="http://www.w3.org/2000/svg" xml:space="preserve" width="181.908mm" height="127.016mm" version="1.1" style="shape-rendering:geometricPrecision; text-rendering:geometricPrecision; image-rendering:optimizeQuality; fill-rule:evenodd; clip-rule:evenodd"
viewBox="0 0 6561.66 4581.64"
 xmlns:xlink="http://www.w3.org/1999/xlink"
 xmlns:xodm="http://www.corel.com/coreldraw/odm/2003">
 <defs>
  <style type="text/css">
   <![CDATA[
    .fil0 {fill:#153762}
    .fil1 {fill:#156C9E}
    .fil2 {fill:#175989}
    .fil5 {fill:#8C8E91}
    .fil4 {fill:#A2A3A5}
    .fil3 {fill:#CBCCCC}
   ]]>
  </style>
 </defs>
 <g id="Слой_x0020_1">
  <metadata id="CorelCorpID_0Corel-Layer"/>
  <path class="fil0" d="M4763.67 1486.74l-27.96 46.26c-136.37,-72.55 -522.92,-310.72 -692.06,-325.85 73.78,173.99 112.09,259.49 112.04,480.84 -0.1,547.82 -321.02,866.5 -936.03,746.58l-176.66 578.89c1096.99,241.79 1811.8,-449.64 1720.66,-1526.73z"/>
  <path class="fil1" d="M3831.98 989.59c-34.39,-82.91 -4.77,-13.69 2.24,-50.76 8.05,-42.63 13.03,-24.73 -14.36,-52.5 121.86,-3.4 20.81,-45 164.65,-49.73 69.43,-2.28 145.61,-0.18 215.85,-0.34 19.31,50.7 -14.11,10.88 34.42,53.98 1.86,1.65 4.88,4.12 6.79,5.82 1.94,1.74 4.86,4.26 6.81,6.06 50.16,46.28 24.63,6.66 42.28,47.13 78.9,-31.22 -64.95,40.02 20.94,-16.99 121.46,-80.62 -17.22,60.36 157.65,-70.8 33.25,-24.94 17.69,-21.03 48.11,-42.73 -14.39,-44.17 -74.7,-114.42 -103.3,-145.32 -42.18,-45.59 -79.63,-72.99 -138.2,-116.34 -351.16,-259.95 -758.08,-304.64 -1195.99,-230.52 7.21,62.91 153.66,554 179.72,580.21 98.71,-15.96 204.71,-22.9 306.88,-8.23 127,18.23 171.75,56.95 265.5,91.04z"/>
  <path class="fil0" d="M693.93 4207.57c-79.22,342.47 -588.07,232.77 -497.9,-137.26 80.18,-329.02 577.43,-206.57 497.9,137.26zm189.49 12.73c43.84,-261.17 -134.59,-464.67 -355.29,-499.51 -621.4,-98.12 -716.17,771.63 -168.07,854.62 275.63,41.73 485.81,-131.43 523.37,-355.1z"/>
  <path class="fil0" d="M5045.82 3893.95c131.98,-8.95 343.26,-35.09 341.49,122.69 -1.74,153.4 -213.33,130.2 -342.68,121.08l1.19 -243.77zm353.14 377.24c70.69,-59.1 137.63,-77.59 163.71,-192.45 24.69,-108.73 -11.01,-225.38 -69.25,-272.56 -134.48,-108.92 -429.7,-74.54 -632.79,-76.3l1.3 834.53 179.74 -0.76 1.15 -270.93 150.99 0.95c45.36,46.03 156.7,208.75 191.44,271.26l213.8 -2.65c-50.12,-98.24 -153.34,-192.92 -200.09,-291.1z"/>
  <path class="fil0" d="M4013.21 4207.57c-31.84,-163.47 61.83,-299.14 192.53,-326.32 155.25,-32.29 283.19,74.92 308.37,204.64 71.55,368.62 -436.48,452.5 -500.9,121.68zm689.69 12.73c50.54,-264.37 -140.29,-462.74 -357.65,-500.4 -264.45,-45.82 -476.86,123.7 -517.89,342.22 -110,585.89 768.1,720.21 875.54,158.19z"/>
  <path class="fil2" d="M3831.98 989.59c110.14,92.46 130.75,97.78 211.67,217.56 169.14,15.13 555.68,253.3 692.06,325.85l27.96 -46.26c-13.03,-133.37 -40.09,-259.81 -84.49,-378.4 -29.63,-79.12 -109.38,-262.03 -161.82,-289.59 -30.42,21.7 -14.86,17.79 -48.11,42.73 -174.87,131.16 -36.19,-9.82 -157.65,70.8 -85.89,57.01 57.95,-14.23 -20.94,16.99 -17.66,-40.47 7.87,-0.86 -42.28,-47.13 -1.95,-1.8 -4.87,-4.32 -6.81,-6.06 -1.91,-1.71 -4.93,-4.17 -6.79,-5.82 -48.53,-43.1 -15.11,-3.29 -34.42,-53.98 -70.23,0.15 -146.42,-1.95 -215.85,0.34 -143.84,4.73 -42.79,46.33 -164.65,49.73 27.39,27.77 22.41,9.87 14.36,52.5 -7.01,37.07 -36.63,-32.15 -2.24,50.76z"/>
  <path class="fil3" d="M1583.16 1732.82c21.41,77.9 144.13,182.69 201.23,271.97 110.99,173.52 133.56,168.45 200.19,143.4 139.21,-52.33 697.21,-276.81 746.92,-320.04l-12.62 -157.61 -1135.72 62.29z"/>
  <path class="fil0" d="M6000.05 4215.62c6.13,-31.22 80.63,-238.58 113.48,-264.65l106.38 265.61 -219.86 -0.96zm-169.98 348.31c50.69,-28 61.7,-138.32 101.8,-188.66l357.12 -0.32 76.04 187.92 196.63 -0.8 -375.29 -837.77 -158.21 -0.93 -363.57 840.42 165.48 0.14z"/>
  <path class="fil0" d="M1222.42 4161.82l0.39 -271.01c139.68,-2.78 297.45,-21.12 306.04,126.74 9.56,164.7 -167.4,146.89 -306.43,144.27zm-1.29 156.6c136.18,-1.53 274.65,4.67 373.54,-57.82 83.35,-52.68 143.77,-166.63 110.03,-317.46 -59.78,-267.19 -391.71,-207.04 -664.73,-213.13l0.71 835.22 181.48 -2.62 -1.04 -244.19z"/>
  <path class="fil2" d="M2039.17 886.18c39.28,34.95 707.51,371.87 775.37,384.27 31.39,-60.79 68.75,-84.88 83.78,-150.32l-481.41 -460.05c-68.23,-71.64 -214.33,-237.94 -288.21,-281.44l-89.53 507.54z"/>
  <path class="fil4" d="M2319.72 2693.05c19.15,-27.5 38.88,-48.12 62.88,-75.39 25.47,-28.95 45.72,-40.55 70.68,-68.89l397.68 -428.33 -87.66 -161.46 -925.71 504.01c60.86,37.94 417.11,216.83 482.12,230.07z"/>
  <path class="fil1" d="M2474.37 426.3c37.4,45.98 472.85,613.27 505.28,634.42 31.97,-10.37 124.2,-59 150.59,-85.34l-362.85 -975.38 -293.01 426.3z"/>
  <path class="fil0" d="M3775.5 3729.35l-181.1 0.37c-49.04,72.73 -195.93,470.95 -233.9,580.42 -66.67,-79.86 -172.89,-456.57 -244.73,-580.2l-184.29 -0.57c5.94,73.68 285.95,679.16 337.35,836.93l166.59 -2.41 340.07 -834.54z"/>
  <polygon class="fil0" points="1764.94,3889.37 2030.06,3891.05 2031.8,4562.3 2211.76,4560.36 2215.2,3892.65 2473.4,3890.86 2466.5,3729.6 1764.23,3732.09 "/>
  <path class="fil5" d="M2986.69 2615.31l0.65 -43.65c-36.54,-4.82 -87.94,-27.41 -135.87,-40.51 -78.14,-21.35 -47.6,-33.97 -78.79,-88.23 -32.73,29.68 -298.25,381.76 -315.06,428.5 47.63,69.85 101.87,138.18 152.32,204.1l134.44 171.8c15.19,14 6.58,7.02 23.96,19.29 35.61,-125.35 219.88,-565.72 218.36,-651.31z"/>
  <path class="fil0" d="M1871.6 1414.93c0.48,125.23 86.41,87.25 369.69,102.84 150.44,8.27 336.94,29.43 483.84,24.02l46.2 -157.65c-49.62,-26.83 -364.31,-148.57 -416.66,-149.3 -84.46,-6.42 -420.52,112.68 -483.08,180.1z"/>
  <polygon class="fil0" points="2616.56,4562.32 2796.76,4560.62 2792.27,3730.57 2615.66,3732.69 "/>
  <path class="fil2" d="M1871.6 1414.93c62.56,-67.42 398.62,-186.52 483.08,-180.1 -57.88,-61.63 -204.75,-88.13 -289.55,-121.4 -90.33,-35.44 -222.08,-94.81 -314,-118.08 22.48,121.91 64.87,326.24 120.47,419.58z"/>
  <path class="fil4" d="M2772.67 2442.93c31.19,54.26 0.66,66.88 78.79,88.23 47.94,13.09 99.33,35.69 135.87,40.51l-0.65 43.65c33.92,-33.12 101.39,-248.27 107.71,-291.07 -23.78,-23.63 -127.85,-97.11 -151.46,-109.69 -29.56,33.51 -52.58,70 -86.56,113.42 -15.57,19.9 -28.88,34.55 -45.64,55.7 -24.26,30.61 -22.66,25.05 -38.07,59.25z"/>
 </g>
</svg>
